<svg width="16" height="16" viewBox="0 0 16 16" fill="none" xmlns="http://www.w3.org/2000/svg">
<path d="M8 16C12.4179 16 16 12.4179 16 8C16 3.58214 12.4179 -3.13161e-07 8 -6.99382e-07C3.58214 -1.0856e-06 1.0856e-06 3.58214 6.99382e-07 8C3.13161e-07 12.4179 3.58214 16 8 16ZM4.82143 6.08928L5.65893 6.08928C5.84107 6.08928 6.01429 6.17678 6.12143 6.325L8 8.92143L9.87857 6.325C9.98572 6.17678 10.1571 6.08928 10.3411 6.08928L11.1786 6.08928C11.2946 6.08928 11.3625 6.22143 11.2946 6.31607L8.11607 10.7089C8.05893 10.7875 7.94286 10.7875 7.88571 10.7089L4.70714 6.31607C4.6375 6.22143 4.70536 6.08928 4.82143 6.08928Z" fill="#BDBDBD"/>
</svg>
