<svg width="16" height="16" viewBox="0 0 16 16" fill="none" xmlns="http://www.w3.org/2000/svg">
<path d="M8 0C3.58214 0 0 3.58214 0 8C0 12.4179 3.58214 16 8 16C12.4179 16 16 12.4179 16 8C16 3.58214 12.4179 0 8 0ZM11.1786 9.91072H10.3411C10.1589 9.91072 9.98571 9.82321 9.87857 9.675L8 7.07857L6.12143 9.675C6.01429 9.82321 5.84286 9.91072 5.65893 9.91072H4.82143C4.70536 9.91072 4.6375 9.77857 4.70536 9.68393L7.88393 5.29107C7.94107 5.2125 8.05714 5.2125 8.11429 5.29107L11.2929 9.68393C11.3625 9.77857 11.2946 9.91072 11.1786 9.91072Z" fill="#BDBDBD"/>
</svg>
